PathFileType	4	(X/Y/Z)	C:/Users/beibeiliu/ov580/test_trc/capture2\sequence.2_training_dense_right.trc
DataRate	CameraRate	NumFrames	NumMarkers	Units	OrigDataRate	OrigDataStartFrame	OrigNumFrames
120	120	14	19	mm	120	1	313
Frame#	Time	ThumbCMC			ThumbMCP			ThumbIP			ThumbTip			IndexMCP			IndexPIP			IndexTip			MiddleMCP			MiddlePIP			MiddleTip			RingMCP			RingPIP			RingTip			PinkyMCP			PinkyPIP			PinkyTip			BackHand1			BackHand2			BackHand3	
		X0	Y0	Z0	X1	Y1	Z1	X2	Y2	Z2	X3	Y3	Z3	X4	Y4	Z4	X5	Y5	Z5	X6	Y6	Z6	X7	Y7	Z7	X8	Y8	Z8	X9	Y9	Z9	X10	Y10	Z10	X11	Y11	Z11	X12	Y12	Z12	X13	Y13	Z13	X14	Y14	Z14	X15	Y15	Z15	X16	Y16	Z16	X17	Y17	Z17	X18	Y18	Z18	
0	0	137.209	-8.14211	-1.61541	112.868	-19.3657	-18.1258	99.2541	-27.0594	-40.8787	88.8485	-32.9646	-58.8794	150.548	-5.88925	-75.8634	145.716	-12.7096	-102.822	141.945	-13.3518	-123.07	180.819	-7.17318	-79.9491	180.015	-12.7594	-105.077	186.9	-17.8889	-132.836	198.707	-14.0694	-74.0011	204.702	-19.2257	-97.9057	212.943	-23.7623	-123.357	216.5	-22.2068	-58.6152	228.42	-27.1181	-76.1778	242.938	-26.0559	-92.0107	195.061	1.35784	-26.0416	192.708	9.83369	3.98556	163.555	10.3597	-13.3477	
1	0.00833333	133.781	-9.87358	-4.94907	115.857	-21.0829	-15.8082	99.3514	-27.6215	-40.8664	84.7191	-32.5736	-54.246	148.566	-7.75628	-74.3319	141.377	-12.25	-100.796	142.919	-15.7058	-125.641	174.968	-8.35413	-78.2443	177.36	-14.5819	-108.002	183.961	-18.5477	-133.712	194.427	-14.6959	-75.6353	205.923	-20.6342	-93.6618	208.282	-24.5705	-122.518	213.541	-23.7472	-57.4211	226.504	-28.3196	-77.1122	237.136	-27.9899	-97.3614	193.132	-0.588216	-24.8682	191.563	7.07803	4.77462	161.717	9.48382	-15.3168	
2	0.0166667	132.442	-9.6656	0.796073	115.878	-22.3785	-17.9251	97.7254	-27.4312	-39.362	86.97	-32.3467	-56.038	148.548	-8.25128	-74.3141	140.683	-12.5719	-96.4202	143.49	-15.6296	-121.894	175.052	-9.58779	-82.8127	176.552	-15.2375	-106.986	183.932	-20.0403	-134.432	196.603	-15.4608	-73.3539	201.206	-20.6649	-93.6565	207.996	-25.7891	-120.68	213.416	-22.9961	-58.4443	224.64	-29.811	-74.5368	235.22	-28.5218	-93.4403	193.749	-1.07592	-25.3817	194.454	6.65518	2.69334	163.368	9.41516	-13.205	
3	0.025	131.058	-9.68557	-2.29565	113.395	-21.2663	-15.4246	98.2245	-27.3873	-41.1905	84.2305	-32.3826	-56.3713	146.333	-7.47464	-72.4124	140.353	-13.2904	-100.736	144.414	-15.7743	-123.691	178.661	-9.04196	-80.242	180.519	-15.6312	-107.651	185.928	-21.2774	-132.331	195.031	-13.9608	-75.2171	202.864	-20.0531	-97.4763	206.567	-25.514	-121.36	212.719	-22.52	-57.1436	222.576	-28.8077	-73.1116	237.433	-28.6055	-96.894	190.74	1.40144	-25.8409	192.148	5.55307	5.66051	159.293	8.55748	-16.7714	
4	0.0333333	130.013	-8.61732	-4.11451	114.388	-21.0254	-17.0089	97.8357	-26.369	-40.0857	84.9003	-32.1789	-57.7887	147.701	-7.26269	-76.7455	140.592	-11.7662	-98.0725	144.862	-15.9091	-123.201	173.737	-7.70185	-77.7898	178.283	-15.6991	-107.955	182.628	-19.6604	-131.408	193.849	-14.5799	-70.6354	200.05	-19.893	-98.5875	207.166	-23.9826	-123.094	213.527	-23.2073	-54.6401	224.312	-28.1371	-77.8093	237.22	-29.7246	-97.4723	191.053	1.14408	-22.8128	195.008	7.47194	5.15523	164.317	8.78804	-12.9853	
5	0.0416667	130.393	-9.84721	-4.91449	116.029	-22.0704	-17.7123	100.033	-27.2723	-36.1084	86.7415	-32.181	-55.0254	144.623	-8.01711	-74.731	144.381	-13.169	-100.649	138.501	-15.099	-125.565	175.89	-8.38149	-77.6682	180.114	-14.7571	-104.152	181.579	-19.6458	-129.697	193.103	-14.4634	-74.1872	202.709	-19.4892	-94.7751	204.544	-24.4375	-119.098	215.481	-23.41	-57.6854	221.38	-28.0239	-74.6404	239.116	-28.1791	-97.4552	195.001	-0.635523	-25.0271	191.925	6.00856	2.42458	163.76	7.92954	-16.7909	
6	0.05	132.212	-11.0952	-3.51846	112.189	-20.9116	-15.9228	94.992	-26.5104	-38.3539	82.9708	-32.27	-53.3771	145.21	-8.47863	-74.7362	138.428	-12.9386	-100.154	143.221	-15.6962	-124.36	172.405	-8.00903	-78.9912	176.716	-15.0123	-104.288	181.418	-20.159	-131.478	196.531	-14.7166	-73.4599	203.068	-20.3082	-94.6092	207.504	-24.7066	-118.425	211.594	-23.2896	-55.7149	225.16	-29.8861	-75.5439	238.378	-29.1816	-97.6116	190.651	1.37182	-22.6586	188.807	6.42003	4.61009	160.657	7.38375	-15.9401	
7	0.0583333	130.966	-10.1679	0.698195	112.7	-20.7779	-16.4985	96.6224	-26.192	-37.7167	83.0337	-30.7875	-55.5699	142.962	-7.17195	-74.9975	141.21	-13.4713	-102.128	140.377	-14.6417	-126.839	174.196	-8.99272	-80.672	176.54	-15.2012	-105.947	184.141	-19.8567	-135.297	196.882	-15.2563	-74.1956	203.93	-20.335	-96.1109	204.32	-23.8254	-119.291	211.513	-22.367	-54.6836	221.032	-28.1569	-73.4495	237.897	-26.9444	-94.8073	190.18	2.32934	-27.4462	189.404	8.03157	6.02521	158.112	9.2952	-13.4171	
8	0.0666667	133.564	-11.2726	-4.22142	112.746	-21.1595	-15.9416	98.7284	-26.244	-35.9703	83.8592	-31.198	-53.3358	144.968	-8.24198	-76.1909	139.985	-12.1445	-100.257	142.078	-14.2917	-122.129	174.817	-8.79975	-79.2755	177.661	-16.0777	-107.77	180.633	-19.4308	-129.262	193.159	-13.8713	-70.5891	200.19	-20.0118	-93.5998	206.432	-24.3547	-121.904	213.134	-22.4707	-56.0257	220.624	-28.5605	-76.3395	237.541	-28.8159	-92.0664	194.452	1.71779	-25.4047	192.884	6.43998	3.33147	161.723	7.93848	-12.2221	
9	0.075	131.076	-9.80322	0.359987	112.078	-22.1671	-16.5701	97.1496	-26.3109	-36.0664	83.221	-31.0516	-55.4994	147.026	-8.17808	-76.3453	138.668	-13.0533	-96.5636	140.603	-15.6593	-124.707	171.786	-8.37251	-82.1633	176.989	-15.9263	-107.57	179.562	-18.7306	-130.264	194.186	-14.4124	-70.5787	199.154	-20.2099	-93.7348	204.575	-24.8044	-120.322	215.178	-23.6452	-55.7313	221.573	-29.0058	-75.2745	233.438	-26.8139	-94.6168	189.046	-0.61792	-22.9113	192.599	4.80528	2.41137	163.648	9.13331	-11.7045	
10	0.0833333	133.665	-10.0841	-3.21182	110.145	-20.5617	-18.8877	93.9958	-26.5279	-37.6828	83.6688	-32.0503	-57.348	145.167	-7.03744	-72.7373	138.287	-12.6644	-100.918	143.779	-14.2406	-122.774	174.227	-8.97922	-81.1274	179.254	-14.4851	-103.951	181.849	-19.5364	-130.933	196.053	-14.9528	-74.3544	200.618	-20.1087	-94.7389	204.965	-25.1114	-120.347	215.468	-24.951	-56.1687	220.926	-29.6685	-75.5518	235.193	-27.2079	-97.4447	189.507	0.00930355	-21.59	191.416	6.98018	5.78212	162.547	6.9924	-11.3638	
11	0.0916667	132.195	-10.8119	1.49522	115.559	-21.6651	-17.2548	95.4908	-26.6137	-41.2826	81.7108	-31.03	-58.7231	143.29	-7.6747	-74.7931	140.824	-12.2553	-100.333	141.213	-14.8123	-125.257	171.325	-8.38932	-77.9505	177.648	-14.43	-105.636	178.616	-18.68	-131.877	195.148	-14.7992	-73.5693	201.461	-21.1805	-94.3076	203.962	-26.5672	-122.423	211.463	-24.1915	-60.606	222.859	-30.0326	-78.0849	236.203	-29.6745	-95.7903	192.096	-1.08626	-26.3581	190.943	4.98758	4.54156	158.861	6.47324	-15.3131	
12	0.1	129.688	-10.2613	0.627697	113.966	-21.3745	-17.3368	97.1213	-26.0224	-36.2346	83.8446	-29.5565	-55.0763	142.119	-6.14608	-76.7257	140.88	-11.7044	-99.8542	138.303	-13.379	-120.521	171.132	-7.85724	-82.7906	179.041	-15.8957	-107.619	181.119	-20.276	-131.76	193.555	-14.9657	-74.9549	202.624	-21.7153	-97.4228	202.148	-25.2668	-122.268	213.738	-23.6838	-59.3491	220.416	-29.6584	-77.3993	233.007	-29.9571	-97.348	190.112	1.32197	-25.1729	190.415	3.84966	4.06207	159.137	8.98415	-11.5715	
13	0.108333	133.429	-10.7112	-2.4273	112.348	-20.9475	-17.8477	97.8747	-24.3944	-38.4202	83.7192	-28.6681	-54.0211	145.928	-5.9442	-74.1552	141.813	-9.9163	-99.7993	139.056	-11.6251	-126.4	175.535	-6.88225	-77.9395	178.149	-13.3581	-103.957	181.891	-19.4688	-134.421	196.146	-14.4675	-75.6089	196.286	-19.7122	-96.0914	203.426	-24.6345	-118.899	214.036	-23.2911	-55.7595	222.601	-30.0664	-78.3337	231.035	-29.2585	-95.4754	189.397	1.11069	-21.9726	190.651	4.61117	2.99055	158.391	9.7141	-11.3873	
